<svg width="32" height="32" viewBox="0 0 512 512" fill="none" xmlns="http://www.w3.org/2000/svg">
  <!-- Favicon: Sadeleştirilmiş HR logosu -->
  
  <!-- H Harfi -->
  <rect x="80" y="120" width="46" height="272" fill="#162544"/>
  <rect x="175" y="120" width="46" height="272" fill="#162544"/>
  <rect x="80" y="232" width="141" height="46" fill="#162544"/>

  <!-- R Harfi -->
  <rect x="268" y="120" width="46" height="272" fill="#162544"/>
  <path d="M268 120 L268 160 L345 160 Q388 160 388 200 Q388 240 345 240 L268 240 L268 120 L345 120 Q400 120 400 196 Q400 240 345 240" fill="#162544"/>
  <polygon points="306,240 340,240 405,392 371,392" fill="#162544"/>

  <!-- Orbital swoosh -->
  <path d="M 30 215 Q 60 125, 180 110 Q 256 98, 360 115 Q 465 135, 490 215" 
        stroke="#162544" stroke-width="16" fill="none" stroke-linecap="round"/>
</svg>
