<svg width="400" height="300" viewBox="0 0 400 300" fill="none" xmlns="http://www.w3.org/2000/svg">
  <!-- Navy Blue: #1A263E -->
  
  <!-- HR Blocky Shape -->
  <path d="M100 60V240M100 150H160M160 60V240M160 150H220C260 150 290 120 290 85C290 50 260 20 220 20H160M160 150L290 280" transform="translate(0, 40)" stroke="#1A263E" stroke-width="55" stroke-linecap="butt" stroke-linejoin="miter"/>

  <!-- Swoosh Orbit -->
  <path d="M50 250C30 280 100 295 180 290C320 280 380 220 380 150C380 80 300 35 180 40C80 45 40 100 40 150" stroke="#1A263E" stroke-width="12" stroke-linecap="round" fill="none"/>

  <!-- Table and Chairs Icon (White to cut through or Navy on light) -->
  <g transform="translate(135, 155) scale(0.6)" stroke="#1A263E" stroke-width="6">
     <!-- Table -->
     <path d="M30 40H70M50 40V65" stroke-width="8"/>
     <!-- Left Chair -->
     <path d="M10 40V65H30"/>
     <path d="M10 50H25"/>
     <!-- Right Chair -->
     <path d="M90 40V65H70"/>
     <path d="M90 50H75"/>
  </g>
</svg>
