<svg width="256" height="256" viewBox="0 0 256 256" fill="none" xmlns="http://www.w3.org/2000/svg">
  <path d="M128 28C81.608 28 44 65.608 44 112C44 140.244 57.9405 165.234 80 180.49V212C80 220.837 87.1634 228 96 228H160C168.837 228 176 220.837 176 212V180.49C198.059 165.234 212 140.244 212 112C212 65.608 174.392 28 128 28Z" fill="url(#paint0_linear)"/>
  <path d="M80 176H176V212C176 216.418 172.418 220 168 220H88C83.5817 220 80 216.418 80 212V176Z" fill="#1E3A8A"/>
  <path d="M128 56C97.0721 56 72 81.0721 72 112C72 129.544 80.0638 145.207 92.7938 155.389L96 157.953V180C96 182.209 97.7909 184 100 184H156C158.209 184 160 182.209 160 180V157.953L163.206 155.389C175.936 145.207 184 129.544 184 112C184 81.0721 158.928 56 128 56ZM116 148H100L112 112H100L128 68V116H144L116 148Z" fill="white"/>
  <defs>
    <linearGradient id="paint0_linear" x1="44" y1="28" x2="212" y2="228" gradientUnits="userSpaceOnUse">
      <stop stopColor="#3B82F6"/>
      <stop offset="1" stopColor="#06B6D4"/>
    </linearGradient>
  </defs>
</svg>
